<svg width="679" height="403" viewBox="0 0 679 403" fill="none" xmlns="http://www.w3.org/2000/svg">
<line y1="-20" x2="139.177" y2="-20" transform="matrix(0.982557 -0.185964 0.354682 0.934987 383.943 306.793)" stroke="white" stroke-width="40"/>
<line y1="-20" x2="139.177" y2="-20" transform="matrix(0.982557 -0.185964 0.354682 0.934987 55 233.882)" stroke="white" stroke-width="40"/>
<line y1="-20" x2="309.927" y2="-20" transform="matrix(0.354682 -0.934987 0.982557 0.185964 40 297.866)" stroke="white" stroke-width="40"/>
<line y1="-20" x2="309.927" y2="-20" transform="matrix(0.354682 -0.934987 0.982557 0.185964 568.809 402.778)" stroke="white" stroke-width="40"/>
<line y1="-20" x2="206.618" y2="-20" transform="matrix(-0.354682 -0.934987 0.982557 -0.185964 605.284 305.185)" stroke="white" stroke-width="40"/>
<line y1="-20" x2="309.927" y2="-20" transform="matrix(-0.354682 -0.934987 0.982557 -0.185964 259.94 297.778)" stroke="white" stroke-width="40"/>
<line y1="-20" x2="309.927" y2="-20" transform="matrix(-0.354682 -0.934987 0.982557 -0.185964 549.6 303.778)" stroke="white" stroke-width="40"/>
<line y1="-20" x2="184" y2="-20" transform="matrix(0.354682 -0.934987 0.982557 0.185964 260 297.648)" stroke="white" stroke-width="40"/>
<line y1="-20" x2="190" y2="-20" transform="matrix(0.354682 -0.934987 0.982557 0.185964 409.943 289.559)" stroke="white" stroke-width="40"/>
<line y1="-20" x2="206.618" y2="-20" transform="matrix(-0.354682 -0.934987 0.982557 -0.185964 398.284 304.185)" stroke="white" stroke-width="40"/>
</svg>
